<svg width="24" height="25" viewBox="0 0 24 25" fill="none" xmlns="http://www.w3.org/2000/svg">
<g clip-path="url(#clip0_0_716)">
<path d="M19.5572 13.4783C19.5961 13.1672 19.6253 12.8561 19.6253 12.5256C19.6253 12.195 19.5961 11.8839 19.5572 11.5728L21.6086 9.96862C21.7933 9.82279 21.8419 9.56029 21.7253 9.3464L19.7808 5.98251C19.6933 5.82696 19.528 5.73946 19.353 5.73946C19.2947 5.73946 19.2364 5.74918 19.1877 5.76862L16.7669 6.74084C16.2614 6.35196 15.7169 6.03112 15.1239 5.78807L14.7544 3.21168C14.7253 2.97834 14.5211 2.80334 14.278 2.80334H10.3891C10.1461 2.80334 9.94192 2.97834 9.91275 3.21168L9.54331 5.78807C8.95025 6.03112 8.40581 6.36168 7.90025 6.74084L5.47942 5.76862C5.42108 5.74918 5.36275 5.73946 5.30442 5.73946C5.13914 5.73946 4.97386 5.82696 4.88636 5.98251L2.94192 9.3464C2.81553 9.56029 2.87386 9.82279 3.05858 9.96862L5.10997 11.5728C5.07108 11.8839 5.04192 12.2047 5.04192 12.5256C5.04192 12.8464 5.07108 13.1672 5.10997 13.4783L3.05858 15.0825C2.87386 15.2283 2.82525 15.4908 2.94192 15.7047L4.88636 19.0686C4.97386 19.2242 5.13914 19.3117 5.31414 19.3117C5.37247 19.3117 5.43081 19.302 5.47942 19.2825L7.90025 18.3103C8.40581 18.6992 8.95025 19.02 9.54331 19.2631L9.91275 21.8395C9.94192 22.0728 10.1461 22.2478 10.3891 22.2478H14.278C14.5211 22.2478 14.7253 22.0728 14.7544 21.8395L15.1239 19.2631C15.7169 19.02 16.2614 18.6895 16.7669 18.3103L19.1877 19.2825C19.2461 19.302 19.3044 19.3117 19.3628 19.3117C19.528 19.3117 19.6933 19.2242 19.7808 19.0686L21.7253 15.7047C21.8419 15.4908 21.7933 15.2283 21.6086 15.0825L19.5572 13.4783ZM17.6322 11.8158C17.6711 12.1172 17.6808 12.3214 17.6808 12.5256C17.6808 12.7297 17.6614 12.9436 17.6322 13.2353L17.4961 14.3339L18.3614 15.0145L19.4114 15.8311L18.7308 17.0075L17.4961 16.5117L16.485 16.1033L15.61 16.7645C15.1919 17.0756 14.7933 17.3089 14.3947 17.4742L13.3641 17.8922L13.2086 18.9908L13.0141 20.3033H11.653L11.4683 18.9908L11.3128 17.8922L10.2822 17.4742C9.86414 17.2992 9.47525 17.0756 9.08636 16.7839L8.20164 16.1033L7.17108 16.5214L5.93636 17.0172L5.25581 15.8408L6.30581 15.0242L7.17108 14.3436L7.03497 13.245C7.00581 12.9436 6.98636 12.72 6.98636 12.5256C6.98636 12.3311 7.00581 12.1075 7.03497 11.8158L7.17108 10.7172L6.30581 10.0367L5.25581 9.22001L5.93636 8.04362L7.17108 8.53946L8.1822 8.94779L9.0572 8.28668C9.47525 7.97557 9.87386 7.74223 10.2725 7.57696L11.303 7.1589L11.4586 6.06029L11.653 4.74779H13.0044L13.1891 6.06029L13.3447 7.1589L14.3753 7.57696C14.7933 7.75196 15.1822 7.97557 15.5711 8.26723L16.4558 8.94779L17.4864 8.52973L18.7211 8.0339L19.4016 9.21029L18.3614 10.0367L17.4961 10.7172L17.6322 11.8158ZM12.3336 8.63668C10.185 8.63668 8.44469 10.377 8.44469 12.5256C8.44469 14.6742 10.185 16.4145 12.3336 16.4145C14.4822 16.4145 16.2225 14.6742 16.2225 12.5256C16.2225 10.377 14.4822 8.63668 12.3336 8.63668ZM12.3336 14.47C11.2641 14.47 10.3891 13.595 10.3891 12.5256C10.3891 11.4561 11.2641 10.5811 12.3336 10.5811C13.403 10.5811 14.278 11.4561 14.278 12.5256C14.278 13.595 13.403 14.47 12.3336 14.47Z" fill="#A3AED0"/>
</g>
<defs>
<clipPath id="clip0_0_716">
<rect width="23.3333" height="23.3333" fill="white" transform="translate(0.666992 0.858887)"/>
</clipPath>
</defs>
</svg>
