<svg width="24" height="24" viewBox="0 0 24 24" fill="none" xmlns="http://www.w3.org/2000/svg">
<g clip-path="url(#clip0_0_713)">
<path d="M21.0833 7.60331V5.38664C21.0833 4.3172 20.2083 3.4422 19.1388 3.4422H5.5277C4.44853 3.4422 3.58325 4.3172 3.58325 5.38664V18.9978C3.58325 20.0672 4.44853 20.9422 5.5277 20.9422H19.1388C20.2083 20.9422 21.0833 20.0672 21.0833 18.9978V16.7811C21.6569 16.4408 22.0555 15.8283 22.0555 15.1089V9.27553C22.0555 8.55609 21.6569 7.94359 21.0833 7.60331ZM20.111 9.27553V15.1089H13.3055V9.27553H20.111ZM5.5277 18.9978V5.38664H19.1388V7.33109H13.3055C12.236 7.33109 11.361 8.20609 11.361 9.27553V15.1089C11.361 16.1783 12.236 17.0533 13.3055 17.0533H19.1388V18.9978H5.5277Z" fill="#A3AED0"/>
<path d="M16.2221 13.6505C17.0275 13.6505 17.6805 12.9976 17.6805 12.1922C17.6805 11.3867 17.0275 10.7338 16.2221 10.7338C15.4167 10.7338 14.7638 11.3867 14.7638 12.1922C14.7638 12.9976 15.4167 13.6505 16.2221 13.6505Z" fill="#A3AED0"/>
</g>
<defs>
<clipPath id="clip0_0_713">
<rect width="23.3333" height="23.3333" fill="white" transform="translate(0.666626 0.525513)"/>
</clipPath>
</defs>
</svg>
