<svg width="24" height="24" viewBox="0 0 24 24" fill="none" xmlns="http://www.w3.org/2000/svg">
<g clip-path="url(#clip0_0_704)">
<path d="M12.3333 9.27558C14.4819 9.27558 16.2221 7.5353 16.2221 5.38669C16.2221 3.23808 14.4819 1.4978 12.3333 1.4978C10.1846 1.4978 8.44436 3.23808 8.44436 5.38669C8.44436 7.5353 10.1846 9.27558 12.3333 9.27558ZM12.3333 3.44225C13.4027 3.44225 14.2777 4.31725 14.2777 5.38669C14.2777 6.45614 13.4027 7.33114 12.3333 7.33114C11.2638 7.33114 10.3888 6.45614 10.3888 5.38669C10.3888 4.31725 11.2638 3.44225 12.3333 3.44225ZM12.3333 11.7547C10.0388 9.61586 6.96659 8.30336 3.58325 8.30336V18.9978C6.96659 18.9978 10.0388 20.3103 12.3333 22.4492C14.6277 20.32 17.6999 18.9978 21.0833 18.9978V8.30336C17.6999 8.30336 14.6277 9.61586 12.3333 11.7547ZM19.1388 17.1797C16.6791 17.5103 14.3458 18.4436 12.3333 19.9214C10.3305 18.4436 7.98742 17.5006 5.5277 17.17V10.4131C7.56936 10.7825 9.4652 11.7256 11.011 13.1645L12.3333 14.4089L13.6555 13.1742C15.2013 11.7353 17.0971 10.7922 19.1388 10.4228V17.1797Z" fill="#A3AED0"/>
</g>
<defs>
<clipPath id="clip0_0_704">
<rect width="23.3333" height="23.3333" fill="white" transform="translate(0.666626 0.525574)"/>
</clipPath>
</defs>
</svg>
