<svg width="24" height="25" viewBox="0 0 24 25" fill="none" xmlns="http://www.w3.org/2000/svg">
<g clip-path="url(#clip0_0_698)">
<path d="M4.55584 13.4978H10.3892C10.9239 13.4978 11.3614 13.0603 11.3614 12.5256V4.7478C11.3614 4.21307 10.9239 3.77557 10.3892 3.77557H4.55584C4.02112 3.77557 3.58362 4.21307 3.58362 4.7478V12.5256C3.58362 13.0603 4.02112 13.4978 4.55584 13.4978ZM4.55584 21.2756H10.3892C10.9239 21.2756 11.3614 20.8381 11.3614 20.3034V16.4145C11.3614 15.8797 10.9239 15.4422 10.3892 15.4422H4.55584C4.02112 15.4422 3.58362 15.8797 3.58362 16.4145V20.3034C3.58362 20.8381 4.02112 21.2756 4.55584 21.2756ZM14.2781 21.2756H20.1114C20.6461 21.2756 21.0836 20.8381 21.0836 20.3034V12.5256C21.0836 11.9909 20.6461 11.5534 20.1114 11.5534H14.2781C13.7433 11.5534 13.3058 11.9909 13.3058 12.5256V20.3034C13.3058 20.8381 13.7433 21.2756 14.2781 21.2756ZM13.3058 4.7478V8.63668C13.3058 9.17141 13.7433 9.60891 14.2781 9.60891H20.1114C20.6461 9.60891 21.0836 9.17141 21.0836 8.63668V4.7478C21.0836 4.21307 20.6461 3.77557 20.1114 3.77557H14.2781C13.7433 3.77557 13.3058 4.21307 13.3058 4.7478Z" fill="white"/>
</g>
<defs>
<clipPath id="clip0_0_698">
<rect width="23.3333" height="23.3333" fill="white" transform="translate(0.666992 0.858887)"/>
</clipPath>
</defs>
</svg>
